<?xml version="1.0" encoding="UTF-8" standalone="no"?>
<!-- Generator: Adobe Illustrator 27.5.0, SVG Export Plug-In . SVG Version: 6.00 Build 0)  -->

<svg
   version="1.1"
   id="Calque_1"
   x="0px"
   y="0px"
   viewBox="0 0 943.90002 277.60001"
   xml:space="preserve"
   width="943.90002"
   height="277.60001"
   xmlns:xlink="http://www.w3.org/1999/xlink"
   xmlns="http://www.w3.org/2000/svg"
   xmlns:svg="http://www.w3.org/2000/svg"><defs
   id="defs131">
	
	
	
	
</defs>
<style
   type="text/css"
   id="style2">
	.st0{fill:#FFFFFF;}
	.st1{clip-path:url(#SVGID_00000126295110615822746330000007288864044778363300_);fill:#FFFFFF;}
	.st2{clip-path:url(#SVGID_00000176759511317259011100000015062531236141536389_);fill:#FFFFFF;}
	.st3{fill:#27275A;}
	.st4{clip-path:url(#SVGID_00000147208536773431627830000002059394452690422150_);fill:#27275A;}
	.st5{clip-path:url(#SVGID_00000111896935402380214340000018350901415444366778_);fill:#27275A;}
	.st6{clip-path:url(#SVGID_00000054961794895684355390000005556554715072772531_);}
	.st7{clip-path:url(#SVGID_00000176032156245797802950000005196264195348727465_);}
	.st8{clip-path:url(#SVGID_00000079464791050510754350000008965514041378957191_);}
	.st9{clip-path:url(#SVGID_00000037681947738739177400000009643728756820592768_);}
	.st10{fill:#FF5BFF;}
	.st11{clip-path:url(#SVGID_00000037658849358851369610000013722155775069447852_);}
	.st12{clip-path:url(#SVGID_00000137814784266934424740000010320994686603149955_);}
	.st13{clip-path:url(#SVGID_00000013164273447219650090000011281623052533006467_);}
	.st14{clip-path:url(#SVGID_00000049220097576617283880000013266308374631318958_);}
	.st15{fill:#1D1D1B;}
</style>
<g
   id="g104"
   transform="translate(-68.1,-51.5)">
		<g
   id="g94">
			<path
   class="st0"
   d="m 364.7,200 c 25.2,0 41.5,15 41.5,37.4 0,22.4 -17.2,38.1 -42.4,38.1 h -17.9 v 31.3 h -29 V 200 Z m -2.7,51.9 c 9.3,0 15.3,-5.8 15.3,-13.7 0,-7.9 -6,-13.7 -15.3,-13.7 H 346 V 252 h 16 z"
   id="path80" />
			<path
   class="st0"
   d="m 471.5,200 c 23.8,0 40,14.3 40,35.9 0,15 -7.8,26.6 -20.4,32.5 l 25,38.5 h -33.6 l -20.9,-34.3 h -10.4 v 34.3 h -29 V 200 Z m -20.3,50.4 H 468 c 9.5,0 14.5,-5.3 14.5,-13 0,-7.6 -5,-13 -14.5,-13 h -16.8 z"
   id="path82" />
			<path
   class="st0"
   d="m 581.4,198.5 c 32.2,0 56,23.6 56,54.5 0,30.8 -24.7,55.4 -56.9,55.4 -32.2,0 -56,-23.7 -56,-54.5 0,-30.8 24.7,-55.4 56.9,-55.4 z m -0.5,83.2 c 16,0 27.5,-12.2 27.5,-28.2 0,-16 -11.4,-28.2 -27.5,-28.2 -16.1,0 -27.5,12.2 -27.5,28.2 0.1,16 11.5,28.2 27.5,28.2 z"
   id="path84" />
			<path
   class="st0"
   d="m 671.7,200 23.7,69 23.7,-69 h 31.3 l -41.2,106.8 h -29 L 638.9,200 Z"
   id="path86" />
			<path
   class="st0"
   d="M 791.5,200 V 306.8 H 761.7 V 200 Z"
   id="path88" />
			<path
   class="st0"
   d="m 853.8,200 c 34.5,0 59.1,22.6 59.1,52.9 0,30.3 -25.5,53.9 -60,53.9 H 813.7 V 200 Z m -11.2,81.7 H 854 c 17.4,0 29.8,-11.7 29.8,-28.2 0,-16.5 -12.4,-28.2 -29.8,-28.2 h -11.4 z"
   id="path90" />
			<path
   class="st0"
   d="m 929.6,200 h 80.9 v 25.2 h -51.9 v 15.3 h 44.3 v 23.7 h -44.3 v 17.5 h 53.4 v 25.2 h -82.4 z"
   id="path92" />
		</g>
		<g
   id="g102">
			<path
   class="st0"
   d="m 329.3,62.9 v 96.3 h 59.1 v 10.5 h -71 V 62.9 Z"
   id="path96" />
			<path
   class="st0"
   d="m 443.9,171.2 c -24.9,0 -42.6,-18 -42.6,-44.4 V 62.9 h 12.1 v 63.9 c 0,20 13,33.6 31,33.6 17.9,0 30.8,-13.6 30.8,-33.6 V 62.9 h 11.6 v 63.5 c 0,26.4 -18.2,44.8 -42.9,44.8 z"
   id="path98" />
			<path
   class="st0"
   d="m 502,169.7 42.9,-54.6 -40.7,-52.2 h 14.6 l 33.4,43.3 33.7,-43.3 h 13.9 l -40.9,52 43,54.8 H 587.3 L 551.6,123.6 516,169.7 Z"
   id="path100" />
		</g>
	</g><g
   id="g114"
   transform="translate(-68.1,-51.5)">
		<defs
   id="defs107">
			<path
   id="SVGID_1_"
   d="m 242.5,293.5 c 0,19.7 -15.9,35.6 -35.6,35.6 -19.7,0 -35.6,-15.9 -35.6,-35.6 0,-16.7 -6,-31.9 -16,-43.7 -2.4,-2.8 -5.1,-5.5 -7.9,-7.9 -11.8,-10 -27.1,-16 -43.7,-16 -19.7,0 -35.6,-15.9 -35.6,-35.6 0,-19.7 15.9,-35.6 35.6,-35.6 16.7,0 32,-6 43.7,-16 2.8,-2.4 5.5,-5.1 7.9,-7.9 10,-11.8 16,-27.1 16,-43.7 0,-19.7 15.9,-35.6 35.6,-35.6 19.7,0 35.6,16 35.6,35.6 0,19.7 -15.9,35.6 -35.6,35.6 -16.7,0 -31.9,6 -43.7,16 -2.8,2.4 -5.5,5.1 -7.9,7.9 -10,11.8 -16,27.1 -16,43.7 0,16.7 6,31.9 16,43.7 2.4,2.8 5.1,5.5 7.9,7.9 11.8,10 27.1,16 43.7,16 19.7,0 35.6,15.9 35.6,35.6 z" />
		</defs>
		<clipPath
   id="SVGID_00000154423534233121289520000012326721486223866787_">
			<use
   xlink:href="#SVGID_1_"
   style="overflow:visible"
   id="use109"
   x="0"
   y="0"
   width="100%"
   height="100%" />
		</clipPath>
		
			<rect
   x="32.099998"
   y="32.5"
   style="fill:#ffffff"
   width="273.79999"
   height="320.60001"
   clip-path="url(#SVGID_00000154423534233121289520000012326721486223866787_)"
   id="rect112" />
	</g><g
   id="g124"
   transform="translate(-68.1,-51.5)">
		<defs
   id="defs117">
			<path
   id="SVGID_00000083051302681934438470000007611841570173051521_"
   d="m 206.9,154.6 c -19.7,0 -35.6,15.9 -35.6,35.6 0,19.7 15.9,35.6 35.6,35.6 19.7,0 35.6,-15.9 35.6,-35.6 0,-19.7 -15.9,-35.6 -35.6,-35.6 z m 0,49.7 c -7.8,0 -14.1,-6.3 -14.1,-14.1 0,-7.8 6.3,-14.1 14.1,-14.1 7.8,0 14.1,6.3 14.1,14.1 0,7.8 -6.3,14.1 -14.1,14.1 z" />
		</defs>
		<clipPath
   id="SVGID_00000166635141675606616900000008218045237573274799_">
			<use
   xlink:href="#SVGID_00000083051302681934438470000007611841570173051521_"
   style="overflow:visible"
   id="use119"
   x="0"
   y="0"
   width="100%"
   height="100%" />
		</clipPath>
		
			<rect
   x="32.099998"
   y="32.5"
   style="fill:#ffffff"
   width="273.79999"
   height="320.60001"
   clip-path="url(#SVGID_00000166635141675606616900000008218045237573274799_)"
   id="rect122" />
	</g>
</svg>
